<?xml version="1.0" encoding="utf-8"?>
<!-- Generator: Adobe Illustrator 16.0.0, SVG Export Plug-In . SVG Version: 6.00 Build 0)  -->
<!DOCTYPE svg PUBLIC "-//W3C//DTD SVG 1.0//EN" "http://www.w3.org/TR/2001/REC-SVG-20010904/DTD/svg10.dtd">
<svg version="1.0" id="Layer_1" xmlns="http://www.w3.org/2000/svg" xmlns:xlink="http://www.w3.org/1999/xlink" x="0px" y="0px"
	 width="100%" height="100%" viewBox="0 0 283.46 283.464" style="enable-background:new 0 0 283.46 283.464;"
	 xml:space="preserve">
<g>
	<path d="M153.521,49.043c-2.921-0.637-5.895-1.031-8.846-1.537c-1.963,0-3.925,0-5.89,0
		c-2.412,0.383-4.859,0.62-7.233,1.169c-16.457,3.815-28.057,13.389-34.26,29.224c-3.307,8.442-3.065,17.192-1.766,25.93
		c2.181,14.66,7.031,28.372,15.237,40.799c3.812,5.773,8.301,10.971,14.047,14.889c9.54,6.506,19.492,8.037,29.772,1.69
		c5.054-3.12,9.266-7.233,12.963-11.862c8.771-10.981,14.719-23.387,18.32-36.924c2.36-8.871,3.812-17.84,2.247-27.064
		C185.137,67.807,170.943,52.84,153.521,49.043z M184.935,93.117c-0.118,9.763-2.535,19.017-6.237,27.977
		c-3.994,9.66-9.27,18.517-16.654,26.001c-4.313,4.369-9.129,8.067-15.167,9.672c-6.442,1.712-12.531,0.297-18.223-2.874
		c-8.486-4.728-14.244-12.082-18.926-20.344c-5.558-9.801-9.032-20.343-10.572-31.503c-0.162-1.17-0.097-2.477,0.26-3.594
		c2.045-6.404,6.266-10.962,12.677-14.297c-3.017,6.423-4.004,12.625-1.716,19.609c4.429-8.699,9.73-16.148,17.961-21.126
		c-2.572,3.991-4.17,8.351-4.901,12.982c-0.735,4.664-0.822,9.348,0.472,14.342c1.404-2.294,2.624-4.322,3.878-6.329
		c4.373-6.995,9.274-13.539,15.599-18.951c2.985-2.553,5.841-4.245,9.999-2.515c4.28,1.781,8.864,2.814,13.167,4.547
		c5.442,2.189,10.95,3.945,16.838,4.172C185.151,90.955,184.949,92.007,184.935,93.117z"/>
	<path d="M141.732,0C63.581,0,0,63.581,0,141.732s63.581,141.732,141.732,141.732
		s141.732-63.581,141.732-141.732S219.884,0,141.732,0z M235.84,227.641c0.043-0.26,0.082-0.442,0.116-0.517
		c0-1.472,0-2.943,0-4.417c-0.138-0.708-0.32-1.411-0.402-2.126c-0.731-6.368-2.171-12.538-4.946-18.358
		c-4.714-9.881-12.42-16.896-21.539-22.55c-10.325-6.402-21.554-10.79-32.979-14.729c-2.649-0.912-5.324-1.748-8.164-2.676
		c0.269,7.293-1.993,13.462-6.979,18.523c-4.958,5.032-11.059,7.604-18.085,7.899c-6.335,0.265-12.14-1.411-17.243-5.229
		c-7.004-5.238-10.337-12.314-10.12-21.032c-0.329,0-0.459-0.029-0.569,0.005c-12.892,3.968-25.633,8.329-37.507,14.854
		c-5.499,3.021-10.66,6.545-15.123,10.997c-7.374,7.355-11.46,16.377-13.315,26.511c-0.505,2.758-0.987,5.519-1.479,8.279
		c0,1.349,0,2.698,0,4.048c0.035,0.117,0.069,0.287,0.102,0.497c-20.71-22.676-33.359-52.832-33.359-85.89
		c0-70.295,57.189-127.486,127.486-127.486c70.295,0,127.486,57.191,127.486,127.486
		C269.219,174.798,256.562,204.962,235.84,227.641z"/>
</g>
</svg>
