<?xml version="1.0" encoding="utf-8"?>
<!-- Generator: Adobe Illustrator 16.0.0, SVG Export Plug-In . SVG Version: 6.00 Build 0)  -->
<!DOCTYPE svg PUBLIC "-//W3C//DTD SVG 1.1//EN" "http://www.w3.org/Graphics/SVG/1.1/DTD/svg11.dtd">
<svg version="1.1" id="Layer_1" xmlns="http://www.w3.org/2000/svg" xmlns:xlink="http://www.w3.org/1999/xlink" x="0px" y="0px"
	 width="283.46px" height="283.464px" viewBox="0 0 283.46 283.464" enable-background="new 0 0 283.46 283.464"
	 xml:space="preserve">
<g>
	<path fill-rule="evenodd" clip-rule="evenodd" d="M42.518,227.381c0.518-2.906,1.025-5.813,1.557-8.717
		c1.953-10.671,6.256-20.169,14.02-27.914c4.699-4.688,10.134-8.397,15.923-11.579c12.503-6.871,25.918-11.463,39.492-15.641
		c0.116-0.036,0.253-0.005,0.6-0.005c-0.229,9.179,3.28,16.63,10.655,22.145c5.373,4.02,11.485,5.784,18.155,5.506
		c7.399-0.311,13.823-3.02,19.042-8.317c5.25-5.33,7.632-11.825,7.349-19.504c2.99,0.977,5.807,1.856,8.597,2.817
		c12.03,4.147,23.854,8.768,34.725,15.509c9.602,5.954,17.716,13.34,22.679,23.743c2.923,6.129,4.438,12.625,5.208,19.33
		c0.087,0.753,0.279,1.493,0.424,2.238c0,1.552,0,3.102,0,4.651c-0.735,1.601-1.313,3.299-2.24,4.78
		c-1.608,2.575-4.322,3.609-7.061,4.521c-59.941,0-119.882,0-179.823,0c-1.001-0.379-2.023-0.713-3.001-1.146
		c-3.568-1.574-5.232-4.639-6.3-8.155C42.518,230.223,42.518,228.801,42.518,227.381z"/>
	<path fill-rule="evenodd" clip-rule="evenodd" d="M144.83,42.52c3.107,0.532,6.238,0.947,9.314,1.618
		c18.345,3.998,33.289,19.757,36.422,38.234c1.647,9.713,0.12,19.156-2.365,28.496c-3.792,14.254-10.055,27.315-19.29,38.879
		c-3.893,4.873-8.328,9.204-13.649,12.489c-10.824,6.683-21.303,5.07-31.347-1.779c-6.05-4.126-10.776-9.598-14.791-15.677
		c-8.64-13.085-13.747-27.522-16.043-42.958c-1.368-9.2-1.623-18.413,1.859-27.302c6.532-16.673,18.746-26.753,36.073-30.771
		c2.499-0.578,5.076-0.828,7.615-1.23C140.697,42.52,142.763,42.52,144.83,42.52z M122.966,108.281
		c-1.362-5.258-1.271-10.189-0.497-15.101c0.769-4.877,2.452-9.467,5.16-13.67c-8.666,5.241-14.248,13.085-18.911,22.244
		c-2.41-7.354-1.37-13.884,1.806-20.646c-6.75,3.511-11.194,8.31-13.348,15.053c-0.375,1.177-0.444,2.553-0.274,3.784
		c1.622,11.751,5.28,22.851,11.132,33.171c4.93,8.698,10.993,16.442,19.927,21.42c5.993,3.339,12.404,4.828,19.188,3.026
		c6.357-1.689,11.428-5.584,15.97-10.184c7.775-7.881,13.33-17.206,17.535-27.378c3.898-9.434,6.443-19.178,6.567-29.457
		c0.016-1.168,0.229-2.276-1.625-2.349c-6.2-0.238-11.999-2.087-17.729-4.393c-4.53-1.823-9.357-2.911-13.864-4.787
		c-4.378-1.822-7.385-0.04-10.527,2.647c-6.66,5.699-11.82,12.589-16.425,19.954C125.729,103.73,124.444,105.866,122.966,108.281z"
		/>
</g>
</svg>
