<?xml version="1.0" encoding="UTF-8" standalone="no"?>
<svg
   xmlns:dc="http://purl.org/dc/elements/1.1/"
   xmlns:cc="http://creativecommons.org/ns#"
   xmlns:rdf="http://www.w3.org/1999/02/22-rdf-syntax-ns#"
   xmlns:svg="http://www.w3.org/2000/svg"
   xmlns="http://www.w3.org/2000/svg"
   version="1.1"
   id="Capa_1"
   x="0px"
   y="0px"
   width="100%"
   height="100%"
   viewBox="0 0 40.143 40.143"
   style="enable-background:new 0 0 40.143 40.143;"
   xml:space="preserve"><path
     d="m 28.744,38.024 -17.347,0 c -1.104,0 -2,-0.896 -2,-2 l 0,-17.842 -1.118,1.118 c -0.375,0.376 -0.884,0.586 -1.415,0.586 l 0,0 c -0.53,0 -1.04,-0.211 -1.415,-0.586 L 0.584,14.431 c -0.78,-0.781 -0.78,-2.046 0,-2.828 L 9.48,2.704 c 0.434,-0.435 1.061,-0.646 1.665,-0.57 0.083,-0.01 0.167,-0.016 0.252,-0.016 l 2.473,0 c 0.678,0 1.311,0.344 1.679,0.913 0.787,1.216 2.562,2.001 4.522,2.001 1.96,0 3.736,-0.785 4.523,-2.001 0.368,-0.569 1,-0.913 1.679,-0.913 l 2.473,0 c 0.085,0 0.169,0.005 0.252,0.016 0.082,-0.01 0.165,-0.016 0.249,-0.016 l 0.001,0 c 0.53,0 1.039,0.211 1.415,0.586 l 8.894,8.898 c 0.78,0.781 0.78,2.046 0,2.828 l -4.864,4.87 c -0.375,0.375 -0.884,0.586 -1.414,0.586 l -0.001,0 c -0.53,0.001 -1.039,-0.21 -1.414,-0.585 l -1.119,-1.12 0,17.843 c -0.001,1.105 -0.896,2 -2.001,2 z"/></svg>