<?xml version="1.0" encoding="utf-8"?>
<!-- Generator: Adobe Illustrator 16.0.0, SVG Export Plug-In . SVG Version: 6.00 Build 0)  -->
<!DOCTYPE svg PUBLIC "-//W3C//DTD SVG 1.0//EN" "http://www.w3.org/TR/2001/REC-SVG-20010904/DTD/svg10.dtd">
<svg version="1.0" id="Layer_1" xmlns="http://www.w3.org/2000/svg" xmlns:xlink="http://www.w3.org/1999/xlink" x="0px" y="0px"
	 width="100%" height="100%" viewBox="0 0 283.46 283.464" style="enable-background:new 0 0 283.46 283.464;"
	 xml:space="preserve">
<g>
	<path d="M198.851,160.785c-5.451-1.993-10.019-5.14-13.165-10.119c-3.855-6.103-4.823-12.896-4.573-19.933
		c0.029-0.806,0.617-1.741,1.214-2.357c4.675-4.822,6.623-10.661,6.438-17.247c-0.118-4.283-1.72-6.125-5.451-7
		c0.372-5.957,0.943-11.87,1.054-17.793c0.13-6.948-1.037-13.737-4.651-19.806c-5.74-9.645-14.64-14.907-25.291-17.498
		c-2.844-0.691-5.771-1.026-8.66-1.525c-2.7,0-5.399,0-8.099,0c-0.531,0.122-1.056,0.308-1.592,0.356
		c-5.731,0.529-11.234,1.915-16.399,4.473c-8.184,4.052-14.652,9.823-17.947,18.584c-2.575,6.848-3.03,13.982-2.475,21.203
		c0.309,4.019,0.777,8.024,1.174,12.027c-3.382,0.553-4.943,1.903-5.396,5.131c-0.995,7.094,0.967,13.356,5.795,18.646
		c1.576,1.727,2.531,3.575,2.24,5.934c-0.202,1.642-0.426,3.283-0.729,4.907c-1.984,10.608-7.554,18.331-17.919,22.175
		c-0.205,0.075-0.381,0.231-0.872,0.537c14.243,4.426,27.878,6.438,40.366-4.127c0.532,0.37,1.05,0.794,1.623,1.12
		c3.029,1.725,5.997,3.583,9.129,5.095c4.408,2.125,9.018,2.343,13.513,0.256c3.043-1.414,5.984-3.071,8.883-4.765
		c1.028-0.601,1.641-0.769,2.704,0.012c1.72,1.255,3.589,2.371,5.531,3.241c7.269,3.247,14.9,3.271,22.567,2.033
		c4.043-0.653,8.018-1.743,12.024-2.636c-0.02-0.173-0.042-0.349-0.062-0.521C199.5,161.051,199.179,160.906,198.851,160.785z
		 M178.581,123.955c-0.992,1.13-1.961,2.357-2.606,3.699c-5.974,12.419-14.433,22.526-26.587,29.375
		c-4.976,2.803-9.721,3.015-14.79,0.243c-10.893-5.953-18.892-14.675-24.877-25.392c-0.924-1.655-1.642-3.424-2.533-5.099
		c-0.425-0.797-0.929-1.609-1.577-2.224c-3.718-3.532-5.07-7.978-5.116-12.938c-0.006-0.602,0.006-1.338,0.329-1.777
		c0.761-1.038,1.591-2.482,2.627-2.714c0.817-0.182,2.272,0.992,2.933,1.928c1.142,1.615,1.888,3.514,2.854,5.396
		c-0.78-4.498-1.584-8.882-2.262-13.287c-0.117-0.758,0.088-1.736,0.506-2.376c1.698-2.605,3.918-4.073,7.312-3.964
		c10.099,0.325,20.106-0.413,29.698-3.96c8.194-3.029,14.85-7.997,19.261-15.695c0.149-0.26,0.334-0.501,0.584-0.877
		c3.806,2.565,6.372,5.944,8.777,9.546c3.632,5.437,4.854,11.215,3.466,17.638c-0.932,4.297-1.55,8.658-2.327,13.091
		c0.916-1.825,1.714-3.608,2.684-5.288c0.697-1.205,1.55-2.652,3.201-2.294c1.726,0.373,2.636,1.911,2.774,3.554
		C183.337,115.579,181.977,120.093,178.581,123.955z"/>
	<path d="M141.732,0C63.581,0,0,63.581,0,141.732s63.581,141.732,141.732,141.732
		s141.732-63.581,141.732-141.732S219.884,0,141.732,0z M228.917,234.654c0.607-4.604,0.972-8.186,1.03-9.684
		c0.207-5.32,0.312-10.72-0.366-15.979c-0.932-7.226-3.677-13.93-9.315-18.856c-2.875-2.512-6.23-4.577-9.615-6.387
		c-8.478-4.533-17.797-6.877-26.868-9.854c-2.602-0.854-5.219-1.666-7.95-2.534c-0.217,1.444-0.398,2.703-0.594,3.959
		c-1.461,9.459-4.829,18.086-11.128,25.423c-5.944,6.924-13.473,11.717-21.495,15.81c-0.525,0.267-1.453,0.172-2.004-0.115
		c-2.334-1.22-4.625-2.529-6.882-3.89c-10.853-6.534-19.216-15.223-23.085-27.554c-1.38-4.402-2.178-8.986-3.258-13.561
		c-2.739,0.886-5.645,1.834-8.556,2.767c-8.805,2.818-17.66,5.455-26.048,9.468c-9.78,4.676-15.959,12.134-18.447,22.651
		c-0.447,1.89-0.657,3.835-0.977,5.754c0,4.418,0,8.837,0,13.254c0.07,0.098,0.176,0.188,0.206,0.298
		c0.446,1.675,0.947,5.161,1.543,9.55c-25.115-23.3-40.861-56.563-40.861-93.442c0-70.296,57.19-127.486,127.486-127.486
		c70.296,0,127.486,57.19,127.486,127.486C269.219,178.336,253.706,211.38,228.917,234.654z"/>
</g>
</svg>
