<?xml version="1.0" encoding="utf-8"?>
<!-- Generator: Adobe Illustrator 16.0.0, SVG Export Plug-In . SVG Version: 6.00 Build 0)  -->
<!DOCTYPE svg PUBLIC "-//W3C//DTD SVG 1.1//EN" "http://www.w3.org/Graphics/SVG/1.1/DTD/svg11.dtd">
<svg version="1.1" id="Layer_1" xmlns="http://www.w3.org/2000/svg" xmlns:xlink="http://www.w3.org/1999/xlink" x="0px" y="0px"
	 width="283.46px" height="283.464px" viewBox="0 0 283.46 283.464" enable-background="new 0 0 283.46 283.464"
	 xml:space="preserve">
<g>
	<path fill-rule="evenodd" clip-rule="evenodd" d="M48.681,215.794c0.337-2.021,0.558-4.068,1.028-6.058
		c2.62-11.074,9.126-18.927,19.423-23.851c8.833-4.225,18.156-7.001,27.427-9.969c3.065-0.981,6.125-1.98,9.009-2.913
		c1.138,4.816,1.977,9.644,3.431,14.278c4.074,12.983,12.88,22.132,24.307,29.012c2.376,1.433,4.788,2.812,7.246,4.096
		c0.58,0.302,1.558,0.402,2.11,0.121c8.447-4.31,16.374-9.355,22.633-16.646c6.632-7.726,10.178-16.809,11.717-26.769
		c0.205-1.322,0.396-2.647,0.625-4.169c2.876,0.915,5.632,1.771,8.371,2.669c9.551,3.134,19.363,5.602,28.29,10.375
		c3.563,1.905,7.097,4.08,10.124,6.725c5.937,5.188,8.827,12.246,9.808,19.854c0.714,5.537,0.604,11.223,0.386,16.824
		c-0.265,6.791-5.782,11.559-12.853,11.562c-24.679,0.014-49.355,0.006-74.034,0.006c-28.23,0-56.462,0-84.693,0
		c-8.124,0-12.046-3.022-14.137-10.879c-0.031-0.115-0.143-0.211-0.217-0.313C48.681,225.099,48.681,220.447,48.681,215.794z"/>
	<path fill-rule="evenodd" clip-rule="evenodd" d="M145.979,42.52c3.041,0.525,6.124,0.879,9.118,1.606
		c11.215,2.728,20.585,8.269,26.629,18.424c3.806,6.39,5.034,13.538,4.897,20.854c-0.116,6.236-0.718,12.463-1.109,18.734
		c3.929,0.922,5.615,2.861,5.74,7.371c0.194,6.935-1.857,13.082-6.779,18.159c-0.629,0.649-1.248,1.634-1.278,2.482
		c-0.264,7.408,0.756,14.562,4.815,20.987c3.312,5.243,8.122,8.556,13.861,10.654c0.346,0.128,0.684,0.281,1.025,0.424
		c0.021,0.183,0.044,0.367,0.064,0.549c-4.219,0.94-8.403,2.088-12.66,2.775c-8.073,1.303-16.108,1.278-23.762-2.141
		c-2.046-0.916-4.014-2.092-5.824-3.413c-1.12-0.821-1.765-0.645-2.847-0.012c-3.053,1.783-6.149,3.527-9.354,5.017
		c-4.732,2.197-9.586,1.968-14.228-0.27c-3.298-1.592-6.422-3.549-9.612-5.364c-0.603-0.344-1.148-0.79-1.708-1.18
		c-13.149,11.125-27.505,9.006-42.502,4.346c0.517-0.322,0.702-0.486,0.918-0.565c10.914-4.047,16.778-12.179,18.867-23.349
		c0.32-1.71,0.556-3.438,0.768-5.167c0.307-2.482-0.699-4.43-2.358-6.247c-5.084-5.569-7.149-12.163-6.102-19.632
		c0.477-3.398,2.121-4.821,5.682-5.402c-0.417-4.215-0.91-8.433-1.236-12.664c-0.584-7.603-0.105-15.115,2.606-22.325
		c3.47-9.225,10.28-15.302,18.896-19.567c5.438-2.693,11.233-4.152,17.267-4.709c0.565-0.052,1.118-0.247,1.676-0.376
		C140.293,42.52,143.135,42.52,145.979,42.52z M165.532,70.724c-0.264,0.396-0.458,0.649-0.615,0.923
		c-4.645,8.105-11.651,13.337-20.279,16.526c-10.099,3.734-20.637,4.512-31.27,4.169c-3.573-0.115-5.911,1.431-7.699,4.174
		c-0.44,0.674-0.656,1.704-0.533,2.502c0.714,4.639,1.56,9.254,2.381,13.99c-1.016-1.981-1.802-3.98-3.004-5.682
		c-0.695-0.984-2.227-2.221-3.088-2.029c-1.091,0.243-1.965,1.765-2.766,2.857c-0.339,0.463-0.353,1.238-0.346,1.871
		c0.048,5.224,1.471,9.904,5.386,13.623c0.682,0.647,1.212,1.503,1.66,2.342c0.938,1.764,1.694,3.625,2.667,5.368
		c6.302,11.284,14.724,20.467,26.193,26.735c5.337,2.918,10.333,2.695,15.573-0.256c12.797-7.211,21.704-17.854,27.993-30.93
		c0.681-1.413,1.7-2.705,2.745-3.895c3.575-4.066,5.007-8.819,4.559-14.126c-0.146-1.729-1.104-3.35-2.921-3.742
		c-1.738-0.377-2.637,1.146-3.37,2.416c-1.021,1.769-1.861,3.646-2.826,5.567c0.818-4.667,1.47-9.26,2.45-13.783
		c1.463-6.763,0.175-12.847-3.649-18.571C172.241,76.983,169.539,73.425,165.532,70.724z"/>
</g>
</svg>
