<svg xmlns="http://www.w3.org/2000/svg" width="283.46" height="283.464" viewBox="0 0 283.46 283.464"><g fill-rule="evenodd" clip-rule="evenodd"><path d="M42.518 227.38c.518-2.905 1.025-5.812 1.557-8.716 1.953-10.67 6.256-20.17 14.02-27.914 4.7-4.688 10.134-8.397 15.923-11.58 12.503-6.87 25.918-11.462 39.492-15.64.116-.036.253-.005.6-.005-.23 9.18 3.28 16.63 10.655 22.145 5.373 4.02 11.485 5.784 18.155 5.506 7.4-.31 13.823-3.02 19.042-8.317 5.25-5.33 7.632-11.826 7.35-19.505 2.99.977 5.806 1.856 8.596 2.817 12.03 4.147 23.854 8.768 34.725 15.51 9.602 5.953 17.716 13.34 22.68 23.742 2.922 6.13 4.437 12.625 5.207 19.33.087.753.28 1.493.424 2.238v4.65c-.735 1.602-1.313 3.3-2.24 4.78-1.608 2.576-4.322 3.61-7.06 4.522H51.82c-1-.38-2.023-.713-3-1.146-3.57-1.574-5.233-4.64-6.3-8.155-.002-1.42-.002-2.842-.002-4.262z"/><path d="M144.83 42.52c3.107.532 6.238.947 9.314 1.618 18.345 3.998 33.29 19.757 36.422 38.234 1.647 9.713.12 19.156-2.365 28.496-3.79 14.254-10.054 27.315-19.29 38.88-3.892 4.872-8.327 9.203-13.648 12.488-10.824 6.683-21.303 5.07-31.347-1.78-6.05-4.125-10.776-9.597-14.79-15.676-8.64-13.085-13.748-27.522-16.044-42.958-1.367-9.2-1.622-18.413 1.86-27.302 6.532-16.673 18.746-26.753 36.073-30.77 2.5-.58 5.076-.83 7.615-1.23h6.202zm-21.864 65.76c-1.362-5.257-1.27-10.188-.497-15.1.768-4.877 2.45-9.467 5.16-13.67-8.667 5.24-14.25 13.085-18.912 22.244-2.41-7.354-1.37-13.884 1.806-20.646-6.75 3.51-11.194 8.31-13.348 15.053-.375 1.178-.444 2.554-.274 3.785 1.622 11.75 5.28 22.85 11.132 33.17 4.93 8.7 10.993 16.443 19.927 21.42 5.994 3.34 12.405 4.83 19.19 3.027 6.356-1.69 11.427-5.584 15.97-10.184 7.774-7.88 13.33-17.206 17.534-27.378 3.898-9.434 6.443-19.178 6.567-29.457.017-1.168.23-2.276-1.624-2.35-6.2-.237-12-2.086-17.73-4.392-4.53-1.822-9.356-2.91-13.863-4.786-4.378-1.822-7.385-.04-10.527 2.647-6.66 5.7-11.82 12.59-16.425 19.955-1.32 2.115-2.606 4.25-4.084 6.666z"/></g></svg>