<svg xmlns="http://www.w3.org/2000/svg" viewBox="0 0 40.143 40.143"><path d="M28.744 38.024H11.397c-1.104 0-2-.896-2-2V18.182L8.28 19.3c-.376.376-.885.586-1.416.586-.53 0-1.04-.21-1.415-.586L.583 14.43c-.78-.78-.78-2.045 0-2.827l8.896-8.9c.434-.434 1.06-.645 1.665-.57.083-.01.167-.015.252-.015h2.473c.678 0 1.31.344 1.68.913.786 1.217 2.56 2.002 4.52 2.002 1.96 0 3.737-.785 4.524-2 .368-.57 1-.914 1.68-.914h2.472c.085 0 .17.005.252.016.082-.01.165-.016.25-.016.53 0 1.04.21 1.415.586l8.894 8.898c.78.78.78 2.046 0 2.828l-4.864 4.87c-.375.375-.884.586-1.414.586h-.002c-.53 0-1.04-.21-1.414-.585l-1.12-1.12v17.844c0 1.105-.895 2-2 2z"/></svg>