<svg xmlns="http://www.w3.org/2000/svg" width="283.46" height="283.464" viewBox="0 0 283.46 283.464"><g fill-rule="evenodd" clip-rule="evenodd"><path d="M48.68 215.794c.338-2.02.56-4.068 1.03-6.058 2.62-11.074 9.125-18.927 19.422-23.85 8.833-4.226 18.156-7.002 27.427-9.97 3.064-.98 6.124-1.98 9.008-2.913 1.138 4.816 1.977 9.644 3.43 14.278 4.075 12.984 12.88 22.133 24.308 29.013 2.376 1.433 4.788 2.812 7.246 4.096.58.3 1.558.4 2.11.12 8.447-4.31 16.374-9.355 22.633-16.646 6.632-7.726 10.178-16.81 11.717-26.77.205-1.32.396-2.646.625-4.168 2.876.915 5.632 1.77 8.37 2.67 9.552 3.133 19.364 5.6 28.29 10.374 3.564 1.905 7.098 4.08 10.125 6.725 5.937 5.188 8.827 12.246 9.808 19.854.714 5.536.604 11.222.386 16.823-.265 6.79-5.782 11.56-12.853 11.562-24.68.014-49.355.006-74.034.006H63.035c-8.124 0-12.046-3.02-14.137-10.878-.032-.115-.144-.21-.218-.313v-13.956zM145.98 42.52c3.04.525 6.123.88 9.117 1.606 11.215 2.728 20.585 8.27 26.63 18.424 3.805 6.39 5.033 13.538 4.896 20.854-.116 6.236-.718 12.463-1.11 18.734 3.93.922 5.616 2.86 5.74 7.37.195 6.936-1.856 13.083-6.778 18.16-.63.65-1.248 1.634-1.278 2.482-.264 7.408.756 14.562 4.815 20.987 3.312 5.243 8.122 8.556 13.86 10.654.347.13.685.282 1.026.425.02.183.044.367.064.55-4.22.94-8.403 2.087-12.66 2.774-8.073 1.302-16.108 1.277-23.762-2.142-2.046-.916-4.014-2.092-5.824-3.413-1.12-.82-1.765-.645-2.847-.012-3.054 1.783-6.15 3.527-9.355 5.017-4.732 2.197-9.586 1.968-14.228-.27-3.298-1.592-6.422-3.55-9.612-5.364-.603-.344-1.148-.79-1.708-1.18-13.15 11.125-27.505 9.006-42.502 4.346.517-.322.702-.486.918-.565 10.914-4.047 16.778-12.18 18.867-23.35.32-1.71.556-3.437.768-5.166.307-2.48-.7-4.43-2.358-6.246-5.084-5.57-7.15-12.163-6.102-19.632.477-3.398 2.12-4.82 5.682-5.402-.417-4.215-.91-8.433-1.236-12.664-.584-7.603-.105-15.115 2.606-22.325 3.47-9.224 10.28-15.3 18.896-19.566 5.438-2.693 11.233-4.152 17.267-4.71.565-.05 1.118-.246 1.676-.375h8.53zm19.552 28.204c-.264.396-.458.65-.615.923-4.645 8.105-11.65 13.337-20.28 16.526-10.098 3.734-20.636 4.512-31.27 4.17-3.572-.116-5.91 1.43-7.698 4.173-.44.674-.657 1.704-.534 2.502.714 4.64 1.56 9.254 2.38 13.99-1.015-1.98-1.8-3.98-3.003-5.682-.695-.984-2.227-2.22-3.088-2.03-1.09.244-1.965 1.766-2.766 2.858-.34.463-.354 1.238-.347 1.87.048 5.225 1.47 9.905 5.386 13.624.68.647 1.21 1.503 1.66 2.342.937 1.764 1.693 3.625 2.666 5.368 6.302 11.284 14.724 20.467 26.193 26.735 5.336 2.918 10.332 2.695 15.572-.256 12.797-7.21 21.704-17.854 27.993-30.93.68-1.413 1.7-2.705 2.745-3.895 3.575-4.066 5.007-8.82 4.56-14.126-.147-1.73-1.105-3.35-2.922-3.742-1.738-.377-2.637 1.146-3.37 2.416-1.02 1.77-1.86 3.646-2.826 5.567.818-4.667 1.47-9.26 2.45-13.783 1.463-6.763.175-12.847-3.65-18.57-2.53-3.79-5.233-7.35-9.24-10.05z"/></g></svg>